<svg width="1200" height="450" viewBox="0 0 1200 450" fill="none" xmlns="http://www.w3.org/2000/svg">
<path d="M1200 0H0V450H1200V0Z" fill="white"/>
<path d="M445 21H31V435H445V21Z" fill="white"/>
<path fill-rule="evenodd" clip-rule="evenodd" d="M103.442 116.501C126.054 83.5467 169.297 57.543 209.628 67.2024C250.509 76.9934 259.113 134.873 292.501 161.781C318.989 183.128 360.816 178.06 381.129 205.417C403.023 234.903 406.539 274.018 401.928 309.152C397.101 345.893 388.529 374.277 376.753 355.7C344.903 372.12 291.901 358.228 255.174 355.7C225.311 353.646 190.809 368.418 161.958 358.851C127.494 347.426 85.5849 364.477 72.2632 330.335C58.9382 296.183 92.7632 265.258 97.8991 230.034C103.47 191.829 82.0702 147.647 103.442 116.501Z" fill="#F7F7F7"/>
<path d="M77.6985 340.109C274.052 312.429 333.398 314.071 395.828 342.099C393.237 352.478 391.704 357.879 387.7 366.813L98.0999 362.5C88.6207 355.086 84.1025 349.798 77.6985 340.109Z" fill="#FFF50A"/>
<path d="M182.691 233.653V329.191C213.847 332.716 226.496 337.453 278.23 329.191V233.653H182.691ZM234.683 308.164C234.683 317.462 229.224 321.706 221.269 321.706C214.083 321.706 209.924 317.995 207.792 313.496L215.106 309.081C216.513 311.576 217.793 313.687 220.885 313.687C223.828 313.687 225.705 312.536 225.705 308.036V277.519H234.683V308.164ZM255.923 321.706C247.585 321.706 242.189 317.739 239.566 312.536L246.881 308.313C248.8 311.448 251.317 313.773 255.731 313.773C259.442 313.773 261.83 311.917 261.83 309.337C261.83 306.266 259.399 305.179 255.283 303.366L253.044 302.406C246.561 299.655 242.275 296.179 242.275 288.865C242.275 282.126 247.414 277.008 255.411 277.008C261.127 277.008 265.221 278.991 268.164 284.194L261.169 288.673C259.634 285.922 257.97 284.834 255.39 284.834C252.767 284.834 251.104 286.497 251.104 288.673C251.104 291.36 252.767 292.447 256.627 294.132L258.866 295.092C266.501 298.354 270.787 301.703 270.787 309.209C270.787 317.27 264.432 321.706 255.923 321.706Z" fill="black"/>
<path d="M317.745 233.601L242.685 64.0908L218.684 159.316L215.359 64.5443L147.215 233.601L138.239 253.556H200.392C203.038 253.556 205.117 252.612 206.629 250.722C208.065 248.756 208.783 246.526 208.783 244.032C208.783 241.235 208.14 238.816 206.855 236.776C205.57 234.659 203.491 233.601 200.619 233.601H175.788L274.772 189.267L292.574 233.601H271.484C268.612 233.601 266.533 234.659 265.248 236.776C263.963 238.816 263.321 241.235 263.321 244.032C263.321 246.526 264.077 248.756 265.588 250.722C267.024 252.612 269.066 253.556 271.711 253.556H326.994L317.745 233.601ZM267.743 171.806H196.458L228.738 83.3494L267.743 171.806Z" fill="black"/>
<path d="M465.695 261.898C465.695 260.694 465.972 259.652 466.525 258.773C467.079 257.862 467.974 257.406 469.211 257.406H475.998L508.322 184.408C508.811 183.269 509.543 182.243 510.52 181.332C511.496 180.388 512.766 179.916 514.328 179.916C515.956 179.916 517.193 180.404 518.039 181.381C518.918 182.325 519.602 183.399 520.09 184.604L549.436 257.406H558.127C559.364 257.406 560.243 257.862 560.764 258.773C561.317 259.652 561.594 260.694 561.594 261.898C561.594 262.973 561.285 263.933 560.666 264.779C560.048 265.593 559.169 266 558.029 266H526.535C525.396 266 524.501 265.593 523.85 264.779C523.231 263.933 522.922 262.973 522.922 261.898C522.922 260.694 523.199 259.652 523.752 258.773C524.305 257.862 525.201 257.406 526.438 257.406H537.131L529.904 238.314H494.504L486.838 257.406H495.92C497.157 257.406 498.052 257.862 498.605 258.773C499.159 259.652 499.436 260.694 499.436 261.898C499.436 262.973 499.11 263.933 498.459 264.779C497.84 265.593 496.962 266 495.822 266H469.309C468.169 266 467.274 265.593 466.623 264.779C466.005 263.933 465.695 262.973 465.695 261.898ZM497.531 230.795H527.121L512.814 192.807L497.531 230.795ZM619.504 237.582C619.504 231.82 618.055 226.84 615.158 222.641C612.294 218.409 608.046 216.293 602.414 216.293C598.117 216.293 594.406 217.107 591.281 218.734C588.189 220.362 585.666 222.445 583.713 224.984V252.182C585.764 254.232 588.319 255.876 591.379 257.113C594.471 258.318 598.052 258.92 602.121 258.92C607.818 258.92 612.131 256.804 615.061 252.572C618.023 248.308 619.504 243.311 619.504 237.582ZM630.295 237.582C630.295 246.241 627.74 253.354 622.629 258.92C617.518 264.454 610.682 267.221 602.121 267.221C598.117 267.221 594.618 266.618 591.623 265.414C588.661 264.21 586.024 262.631 583.713 260.678V285.482H593.576C594.813 285.482 595.708 285.938 596.262 286.85C596.815 287.761 597.092 288.819 597.092 290.023C597.092 291.098 596.766 292.042 596.115 292.855C595.497 293.669 594.618 294.076 593.479 294.076H567.893C566.525 294.076 565.516 293.686 564.865 292.904C564.214 292.123 563.889 291.114 563.889 289.877C563.889 288.673 564.182 287.631 564.768 286.752C565.386 285.906 566.33 285.482 567.6 285.482H573.703V218.197L566.721 219.906C566.656 219.939 566.558 219.971 566.428 220.004C566.298 220.004 566.151 220.004 565.988 220.004C565.012 220.004 564.1 219.613 563.254 218.832C562.408 218.018 561.984 217.107 561.984 216.098C561.984 214.991 562.229 214.112 562.717 213.461C563.205 212.777 563.905 212.289 564.816 211.996L578.391 208.09C578.521 208.09 578.602 208.074 578.635 208.041C578.667 208.008 578.749 207.992 578.879 207.992H579.221C579.904 207.992 580.49 208.204 580.979 208.627C581.467 209.018 581.711 209.571 581.711 210.287L582.688 219.516C584.25 216.195 586.854 213.445 590.5 211.264C594.146 209.083 598.345 207.992 603.098 207.992C611.626 207.992 618.283 210.792 623.068 216.391C627.886 221.957 630.295 229.021 630.295 237.582ZM676.926 216.879C673.02 216.879 669.536 217.742 666.477 219.467C663.417 221.192 661.089 223.243 659.494 225.619V257.406H672.58C673.817 257.406 674.712 257.862 675.266 258.773C675.819 259.652 676.096 260.694 676.096 261.898C676.096 262.973 675.77 263.933 675.119 264.779C674.501 265.593 673.622 266 672.482 266H640.207C638.84 266 637.831 265.609 637.18 264.828C636.529 264.047 636.203 263.038 636.203 261.801C636.203 260.596 636.496 259.571 637.082 258.725C637.701 257.846 638.645 257.406 639.914 257.406H649.484V218.197L642.502 219.906C642.437 219.939 642.339 219.971 642.209 220.004C642.111 220.004 641.981 220.004 641.818 220.004C640.842 220.004 639.93 219.613 639.084 218.832C638.238 218.018 637.814 217.107 637.814 216.098C637.814 214.991 638.042 214.112 638.498 213.461C638.986 212.777 639.686 212.289 640.598 211.996L654.221 208.09C654.351 208.09 654.432 208.074 654.465 208.041C654.497 208.008 654.579 207.992 654.709 207.992H655.002C655.686 207.992 656.271 208.204 656.76 208.627C657.248 209.018 657.492 209.571 657.492 210.287L658.518 219.516C660.764 216.098 663.71 213.331 667.355 211.215C671.034 209.066 675.721 207.992 681.418 207.992C682.492 207.992 683.436 208.318 684.25 208.969C685.096 209.587 685.52 210.466 685.52 211.605V222.006C685.52 223.373 685.129 224.382 684.348 225.033C683.566 225.684 682.557 226.01 681.32 226.01C680.116 226.01 679.074 225.717 678.195 225.131C677.349 224.512 676.926 223.568 676.926 222.299V216.879ZM701.975 238.705C701.975 245.085 703.96 249.952 707.932 253.305C711.936 256.625 716.851 258.285 722.678 258.285C726.812 258.285 730.051 257.52 732.395 255.99C734.771 254.428 737.033 252.654 739.182 250.668C739.67 250.245 740.191 249.936 740.744 249.74C741.298 249.512 741.851 249.398 742.404 249.398C743.706 249.398 744.813 249.805 745.725 250.619C746.636 251.4 747.092 252.458 747.092 253.793C747.092 257.96 744.064 261.247 738.01 263.656C731.988 266.033 726.747 267.221 722.287 267.221C713.368 267.221 706.011 264.584 700.217 259.311C694.455 254.005 691.574 246.876 691.574 237.924C691.574 229.07 694.227 221.876 699.533 216.342C704.839 210.775 712.033 207.992 721.115 207.992C727.626 207.992 733.566 210.255 738.938 214.779C744.309 219.271 746.994 225.082 746.994 232.211C746.994 234.652 746.229 236.117 744.699 236.605C743.202 237.094 741.298 237.452 738.986 237.68L701.975 238.705ZM734.738 229.086C734.738 224.431 733.306 221.143 730.441 219.223C727.609 217.27 724.501 216.293 721.115 216.293C715.386 216.293 710.829 217.709 707.443 220.541C704.09 223.373 702.202 227.133 701.779 231.82L731.125 231.186C732.036 231.153 732.867 230.99 733.615 230.697C734.364 230.372 734.738 229.835 734.738 229.086ZM794.26 216.293C789.898 216.293 785.747 217.742 781.809 220.639C777.902 223.503 775.949 227.117 775.949 231.479V257.406H783.078C784.315 257.406 785.194 257.862 785.715 258.773C786.268 259.652 786.545 260.694 786.545 261.898C786.545 262.973 786.236 263.933 785.617 264.779C784.999 265.593 784.12 266 782.98 266H760.178C758.811 266 757.801 265.609 757.15 264.828C756.499 264.047 756.174 263.038 756.174 261.801C756.174 260.596 756.467 259.571 757.053 258.725C757.671 257.846 758.615 257.406 759.885 257.406H765.939V218.197L758.957 219.906C758.892 219.939 758.794 219.971 758.664 220.004C758.566 220.004 758.436 220.004 758.273 220.004C757.297 220.004 756.385 219.613 755.539 218.832C754.693 218.018 754.27 217.107 754.27 216.098C754.27 214.991 754.497 214.112 754.953 213.461C755.441 212.777 756.141 212.289 757.053 211.996L770.676 208.09C770.806 208.09 770.887 208.074 770.92 208.041C770.952 208.008 771.034 207.992 771.164 207.992H771.457C772.141 207.992 772.727 208.204 773.215 208.627C773.703 209.018 773.947 209.571 773.947 210.287L774.973 219.516C776.633 216.521 779.416 213.852 783.322 211.508C787.261 209.164 791.509 207.992 796.066 207.992C802.154 207.992 806.988 209.783 810.568 213.363C814.149 216.944 815.939 221.794 815.939 227.914V257.406H822.043C823.28 257.406 824.175 257.862 824.729 258.773C825.282 259.652 825.559 260.694 825.559 261.898C825.559 262.973 825.233 263.933 824.582 264.779C823.964 265.593 823.085 266 821.945 266H798.166C796.799 266 795.79 265.609 795.139 264.828C794.488 264.047 794.162 263.038 794.162 261.801C794.162 260.596 794.455 259.571 795.041 258.725C795.66 257.846 796.604 257.406 797.873 257.406H806.076V228.793C806.076 224.919 805.083 221.876 803.098 219.662C801.145 217.416 798.199 216.293 794.26 216.293ZM841.477 237.582C841.477 243.246 842.909 248.227 845.773 252.523C848.671 256.788 852.935 258.92 858.566 258.92C862.44 258.92 865.793 258.074 868.625 256.381C871.457 254.688 873.736 252.621 875.461 250.18V222.982C873.41 220.899 870.936 219.271 868.039 218.1C865.174 216.895 861.854 216.293 858.078 216.293C852.577 216.293 848.426 218.474 845.627 222.836C842.86 227.165 841.477 232.081 841.477 237.582ZM830.637 237.582C830.637 229.281 833.062 222.283 837.912 216.586C842.795 210.857 849.37 207.992 857.639 207.992C861.512 207.992 864.865 208.611 867.697 209.848C870.529 211.085 873.117 212.631 875.461 214.486V191.586L863.938 194.613C863.807 194.613 863.726 194.63 863.693 194.662C863.661 194.695 863.579 194.711 863.449 194.711C862.44 194.711 861.529 194.271 860.715 193.393C859.934 192.481 859.543 191.521 859.543 190.512C859.543 189.112 859.901 188.201 860.617 187.777C861.366 187.322 862.277 186.931 863.352 186.605L882.15 181.186C882.215 181.153 882.313 181.137 882.443 181.137C882.574 181.104 882.72 181.088 882.883 181.088C883.566 181.088 884.169 181.316 884.689 181.771C885.21 182.195 885.471 182.764 885.471 183.48V257.406L892.551 256.381C892.714 256.348 892.909 256.332 893.137 256.332C893.365 256.299 893.609 256.283 893.869 256.283C895.171 256.283 896.213 256.609 896.994 257.26C897.775 257.878 898.166 258.757 898.166 259.896C898.166 262.533 896.734 264.063 893.869 264.486C891.037 264.877 888.563 265.186 886.447 265.414C885.178 265.609 883.745 265.837 882.15 266.098C880.588 266.358 879.286 266.488 878.244 266.488C877.105 266.488 876.356 266.049 875.998 265.17C875.64 264.291 875.461 263.298 875.461 262.191V258.676C873.605 260.922 871.164 262.908 868.137 264.633C865.109 266.358 861.691 267.221 857.883 267.221C849.322 267.221 842.632 264.421 837.814 258.822C833.029 253.191 830.637 246.111 830.637 237.582ZM914.182 238.705C914.182 245.085 916.167 249.952 920.139 253.305C924.143 256.625 929.058 258.285 934.885 258.285C939.019 258.285 942.258 257.52 944.602 255.99C946.978 254.428 949.24 252.654 951.389 250.668C951.877 250.245 952.398 249.936 952.951 249.74C953.505 249.512 954.058 249.398 954.611 249.398C955.913 249.398 957.02 249.805 957.932 250.619C958.843 251.4 959.299 252.458 959.299 253.793C959.299 257.96 956.271 261.247 950.217 263.656C944.195 266.033 938.954 267.221 934.494 267.221C925.575 267.221 918.218 264.584 912.424 259.311C906.662 254.005 903.781 246.876 903.781 237.924C903.781 229.07 906.434 221.876 911.74 216.342C917.046 210.775 924.24 207.992 933.322 207.992C939.833 207.992 945.773 210.255 951.145 214.779C956.516 219.271 959.201 225.082 959.201 232.211C959.201 234.652 958.436 236.117 956.906 236.605C955.409 237.094 953.505 237.452 951.193 237.68L914.182 238.705ZM946.945 229.086C946.945 224.431 945.513 221.143 942.648 219.223C939.816 217.27 936.708 216.293 933.322 216.293C927.593 216.293 923.036 217.709 919.65 220.541C916.298 223.373 914.41 227.133 913.986 231.82L943.332 231.186C944.243 231.153 945.074 230.99 945.822 230.697C946.571 230.372 946.945 229.835 946.945 229.086ZM1011.15 244.369C1011.15 254.558 1008.78 261.996 1004.03 266.684C999.273 271.371 993.446 273.715 986.545 273.715C981.597 273.715 977.3 272.51 973.654 270.102C970.008 267.725 968.186 264.844 968.186 261.459V254.965C968.186 253.109 968.625 251.693 969.504 250.717C970.383 249.74 971.848 249.252 973.898 249.252C975.461 249.252 976.828 249.643 978 250.424C979.204 251.205 979.807 252.344 979.807 253.842V260.043C979.839 261.247 980.588 262.289 982.053 263.168C983.55 264.047 985.292 264.486 987.277 264.486C990.109 264.486 992.893 263.135 995.627 260.434C998.394 257.699 999.777 252.768 999.777 245.639V190.902H984.055C982.818 190.902 981.923 190.463 981.369 189.584C980.848 188.673 980.588 187.615 980.588 186.41C980.588 185.336 980.897 184.392 981.516 183.578C982.134 182.732 983.013 182.309 984.152 182.309H1024C1025.14 182.309 1026.01 182.732 1026.63 183.578C1027.25 184.392 1027.56 185.336 1027.56 186.41C1027.56 187.615 1027.28 188.673 1026.73 189.584C1026.21 190.463 1025.33 190.902 1024.09 190.902H1011.15V244.369ZM1068.48 188.803C1060.67 188.803 1055.49 190.284 1052.95 193.246C1050.41 196.176 1049.14 199.48 1049.14 203.158C1049.14 206.316 1050.23 208.871 1052.41 210.824C1054.63 212.745 1057.92 214.242 1062.28 215.316L1076.29 218.783C1082.7 220.378 1087.93 222.999 1091.96 226.645C1096 230.258 1098.02 235.922 1098.02 243.637C1098.02 252.068 1094.68 258.122 1088.01 261.801C1081.34 265.479 1073.74 267.318 1065.21 267.318C1061.76 267.318 1058.22 266.863 1054.61 265.951C1051 265.04 1047.63 263.51 1044.5 261.361C1044.37 262.468 1044.03 263.721 1043.48 265.121C1042.93 266.521 1042.1 267.221 1040.99 267.221C1039.82 267.221 1038.87 266.977 1038.16 266.488C1037.44 266 1037.02 265.202 1036.89 264.096L1034.1 239.877C1034.1 238.575 1034.49 237.615 1035.28 236.996C1036.06 236.345 1037.23 236.02 1038.79 236.02C1039.77 236.02 1040.63 236.312 1041.38 236.898C1042.13 237.452 1042.57 238.217 1042.7 239.193L1043.48 245.98C1043.8 249.008 1046.05 251.889 1050.22 254.623C1054.38 257.325 1058.97 258.676 1063.99 258.676C1069.55 258.676 1074.94 257.683 1080.15 255.697C1085.39 253.712 1088.01 249.675 1088.01 243.588C1088.01 239.193 1086.68 236.133 1084.01 234.408C1081.37 232.683 1078.23 231.299 1074.58 230.258L1058.57 225.717C1052.74 224.415 1047.91 222.104 1044.06 218.783C1040.26 215.43 1038.35 210.482 1038.35 203.939C1038.35 196.811 1041.13 191.228 1046.7 187.191C1052.3 183.122 1059.02 181.088 1066.87 181.088C1070.25 181.088 1073.72 181.511 1077.27 182.357C1080.85 183.204 1083.81 184.604 1086.15 186.557C1086.15 185.189 1086.58 183.952 1087.42 182.846C1088.3 181.706 1089.41 181.137 1090.74 181.137C1091.72 181.137 1092.58 181.43 1093.33 182.016C1094.08 182.602 1094.52 183.383 1094.65 184.359L1094.99 203.744C1094.99 205.144 1094.57 206.169 1093.72 206.82C1092.88 207.439 1091.8 207.748 1090.5 207.748C1089.36 207.748 1088.42 207.504 1087.67 207.016C1086.95 206.527 1086.53 205.746 1086.4 204.672L1086.2 199.008C1085.78 195.329 1083.76 192.709 1080.15 191.146C1076.54 189.584 1072.65 188.803 1068.48 188.803Z" fill="black"/>
</svg>
