<svg width="800" height="158" viewBox="0 0 800 158" fill="none" xmlns="http://www.w3.org/2000/svg">
<g clip-path="url(#clip0)">
<path d="M739.247 101.847C734.723 102.841 731.853 107.328 732.847 111.851C733.841 116.374 738.328 119.246 742.851 118.252C747.375 117.258 750.246 112.77 749.252 108.246C748.258 103.723 743.77 100.853 739.247 101.847ZM743.76 122.388C736.957 123.882 730.206 119.563 728.711 112.76C727.216 105.957 731.535 99.2061 738.338 97.7112C745.141 96.2163 751.893 100.535 753.387 107.338C754.882 114.141 750.563 120.893 743.76 122.388Z" fill="#5DD1F9"/>
<path d="M59.554 15.2925L69.7267 24.4636L72.5842 11.069L59.554 15.2925ZM72.3379 32.521L51.2731 13.5261L78.2558 4.78079L72.3379 32.521Z" fill="#D9E021"/>
<path d="M560.946 146.656L560.306 160.337L572.475 154.051L560.946 146.656ZM555.733 167.466L557.06 139.13L580.934 154.447L555.733 167.466Z" fill="#39B54A"/>
<path d="M249.536 43.8748L256.691 35.3638L245.742 33.4235L249.536 43.8748ZM263.153 33.018L248.336 50.6441L240.48 29L263.153 33.018Z" fill="#5DD1F9"/>
<path d="M797.561 46.8978L786.962 23.2181L790.827 21.489L801.425 45.1686L797.561 46.8978Z" fill="#662D91"/>
<path d="M783.218 41.424L781.489 37.5589L805.171 26.9615L806.9 30.8266L783.218 41.424" fill="#662D91"/>
<circle cx="446" cy="59" r="5" fill="#FFF50A"/>
<rect x="362.625" y="116.625" width="11.75" height="11.75" stroke="#ED1E79" stroke-width="2.75"/>
</g>
<defs>
<clipPath id="clip0">
<rect width="800" height="158" fill="white"/>
</clipPath>
</defs>
</svg>
