<svg width="834" height="834" viewBox="0 0 834 834" fill="none" xmlns="http://www.w3.org/2000/svg">
<g clip-path="url(#clip0)">
<rect width="834" height="834" fill="white"/>
<path d="M356.648 195.41H339.461V225H309.969V195.41H249.031V174.414L311.629 82.2266H339.461V171.973H356.648V195.41ZM309.969 171.973V147.754C309.969 143.717 310.132 137.858 310.457 130.176C310.783 122.493 311.043 118.034 311.238 116.797H310.457C308.048 122.135 305.151 127.344 301.766 132.422L275.594 171.973H309.969ZM466.902 153.613C466.902 178.548 462.801 197.005 454.598 208.984C446.46 220.964 433.895 226.953 416.902 226.953C400.431 226.953 387.996 220.768 379.598 208.398C371.264 196.029 367.098 177.767 367.098 153.613C367.098 128.418 371.167 109.863 379.305 97.9492C387.443 85.9701 399.975 79.9805 416.902 79.9805C433.374 79.9805 445.809 86.2305 454.207 98.7305C462.671 111.23 466.902 129.525 466.902 153.613ZM397.078 153.613C397.078 171.126 398.576 183.691 401.57 191.309C404.63 198.861 409.741 202.637 416.902 202.637C423.934 202.637 429.012 198.796 432.137 191.113C435.262 183.431 436.824 170.931 436.824 153.613C436.824 136.1 435.229 123.535 432.039 115.918C428.914 108.236 423.868 104.395 416.902 104.395C409.806 104.395 404.728 108.236 401.668 115.918C398.608 123.535 397.078 136.1 397.078 153.613ZM585.164 195.41H567.977V225H538.484V195.41H477.547V174.414L540.145 82.2266H567.977V171.973H585.164V195.41ZM538.484 171.973V147.754C538.484 143.717 538.647 137.858 538.973 130.176C539.298 122.493 539.559 118.034 539.754 116.797H538.973C536.564 122.135 533.667 127.344 530.281 132.422L504.109 171.973H538.484Z" fill="black"/>
<path d="M269.222 272.156V287H265.071V251.307H274.861C279.24 251.307 282.47 252.145 284.554 253.821C286.653 255.498 287.703 258.021 287.703 261.39C287.703 266.11 285.311 269.3 280.525 270.96L290.218 287H285.311L276.668 272.156H269.222ZM269.222 268.592H274.91C277.84 268.592 279.988 268.014 281.355 266.858C282.723 265.687 283.406 263.937 283.406 261.609C283.406 259.249 282.706 257.549 281.307 256.507C279.923 255.465 277.693 254.944 274.617 254.944H269.222V268.592ZM315.877 287H295.979V251.307H315.877V254.993H300.13V266.492H314.925V270.154H300.13V283.289H315.877V287ZM339.095 254.505C335.172 254.505 332.072 255.815 329.793 258.436C327.531 261.04 326.399 264.612 326.399 269.153C326.399 273.825 327.49 277.438 329.671 279.993C331.868 282.532 334.993 283.802 339.046 283.802C341.536 283.802 344.376 283.354 347.566 282.459V286.097C345.092 287.024 342.041 287.488 338.411 287.488C333.154 287.488 329.093 285.893 326.229 282.703C323.38 279.513 321.956 274.98 321.956 269.104C321.956 265.426 322.64 262.203 324.007 259.437C325.39 256.67 327.376 254.537 329.964 253.04C332.568 251.543 335.628 250.794 339.144 250.794C342.887 250.794 346.159 251.478 348.958 252.845L347.2 256.409C344.498 255.14 341.797 254.505 339.095 254.505ZM382.308 251.307V274.402C382.308 278.471 381.079 281.67 378.621 283.997C376.163 286.325 372.786 287.488 368.489 287.488C364.192 287.488 360.864 286.316 358.504 283.973C356.16 281.629 354.988 278.406 354.988 274.305V251.307H359.139V274.598C359.139 277.576 359.952 279.863 361.58 281.458C363.208 283.053 365.6 283.851 368.758 283.851C371.769 283.851 374.088 283.053 375.716 281.458C377.343 279.847 378.157 277.544 378.157 274.549V251.307H382.308ZM395.931 272.156V287H391.78V251.307H401.57C405.949 251.307 409.179 252.145 411.263 253.821C413.362 255.498 414.412 258.021 414.412 261.39C414.412 266.11 412.02 269.3 407.234 270.96L416.927 287H412.02L403.377 272.156H395.931ZM395.931 268.592H401.619C404.549 268.592 406.697 268.014 408.064 266.858C409.432 265.687 410.115 263.937 410.115 261.609C410.115 259.249 409.415 257.549 408.016 256.507C406.632 255.465 404.402 254.944 401.326 254.944H395.931V268.592ZM442.83 277.503C442.83 280.644 441.691 283.094 439.412 284.852C437.133 286.609 434.041 287.488 430.135 287.488C425.903 287.488 422.648 286.943 420.369 285.853V281.849C421.834 282.467 423.429 282.955 425.154 283.313C426.88 283.672 428.589 283.851 430.281 283.851C433.048 283.851 435.132 283.33 436.531 282.288C437.931 281.23 438.631 279.765 438.631 277.894C438.631 276.657 438.379 275.647 437.874 274.866C437.386 274.069 436.556 273.336 435.384 272.669C434.228 272.002 432.462 271.245 430.086 270.398C426.766 269.21 424.389 267.802 422.957 266.175C421.541 264.547 420.833 262.423 420.833 259.803C420.833 257.052 421.867 254.863 423.934 253.235C426.001 251.608 428.735 250.794 432.137 250.794C435.685 250.794 438.948 251.445 441.927 252.747L440.633 256.36C437.687 255.123 434.822 254.505 432.039 254.505C429.842 254.505 428.125 254.977 426.888 255.921C425.651 256.865 425.032 258.175 425.032 259.852C425.032 261.089 425.26 262.106 425.716 262.903C426.172 263.685 426.937 264.409 428.011 265.076C429.101 265.727 430.761 266.451 432.991 267.249C436.735 268.584 439.306 270.016 440.706 271.546C442.122 273.076 442.83 275.062 442.83 277.503ZM481.111 269.104C481.111 274.817 479.663 279.31 476.766 282.581C473.885 285.853 469.873 287.488 464.729 287.488C459.472 287.488 455.411 285.885 452.547 282.679C449.699 279.456 448.274 274.915 448.274 269.056C448.274 263.245 449.707 258.745 452.571 255.555C455.436 252.348 459.505 250.745 464.778 250.745C469.905 250.745 473.909 252.373 476.79 255.628C479.671 258.883 481.111 263.375 481.111 269.104ZM452.669 269.104C452.669 273.938 453.694 277.609 455.745 280.115C457.812 282.605 460.807 283.851 464.729 283.851C468.685 283.851 471.671 282.605 473.689 280.115C475.708 277.625 476.717 273.955 476.717 269.104C476.717 264.303 475.708 260.665 473.689 258.191C471.688 255.701 468.717 254.456 464.778 254.456C460.823 254.456 457.812 255.709 455.745 258.216C453.694 260.706 452.669 264.336 452.669 269.104ZM529.964 287H525.228L505.721 257.044H505.525C505.786 260.56 505.916 263.782 505.916 266.712V287H502.083V251.307H506.771L526.229 281.141H526.424C526.391 280.701 526.318 279.293 526.204 276.917C526.09 274.524 526.049 272.815 526.082 271.79V251.307H529.964V287ZM570.76 269.104C570.76 274.817 569.311 279.31 566.414 282.581C563.533 285.853 559.521 287.488 554.378 287.488C549.121 287.488 545.06 285.885 542.195 282.679C539.347 279.456 537.923 274.915 537.923 269.056C537.923 263.245 539.355 258.745 542.22 255.555C545.084 252.348 549.153 250.745 554.427 250.745C559.554 250.745 563.558 252.373 566.438 255.628C569.319 258.883 570.76 263.375 570.76 269.104ZM542.317 269.104C542.317 273.938 543.343 277.609 545.394 280.115C547.461 282.605 550.455 283.851 554.378 283.851C558.333 283.851 561.32 282.605 563.338 280.115C565.356 277.625 566.365 273.955 566.365 269.104C566.365 264.303 565.356 260.665 563.338 258.191C561.336 255.701 558.366 254.456 554.427 254.456C550.472 254.456 547.461 255.709 545.394 258.216C543.343 260.706 542.317 264.336 542.317 269.104ZM307.967 315.812C307.967 321.703 306.364 326.212 303.157 329.337C299.967 332.446 295.369 334 289.363 334H279.476V298.307H290.413C295.963 298.307 300.276 299.845 303.353 302.921C306.429 305.997 307.967 310.294 307.967 315.812ZM303.572 315.958C303.572 311.303 302.4 307.796 300.057 305.436C297.729 303.076 294.262 301.896 289.656 301.896H283.626V330.411H288.68C293.628 330.411 297.347 329.199 299.837 326.773C302.327 324.332 303.572 320.727 303.572 315.958ZM315.95 334V298.307H320.101V334H315.95ZM350.057 324.503C350.057 327.644 348.917 330.094 346.639 331.852C344.36 333.609 341.268 334.488 337.361 334.488C333.13 334.488 329.874 333.943 327.596 332.853V328.849C329.061 329.467 330.656 329.955 332.381 330.313C334.106 330.672 335.815 330.851 337.508 330.851C340.275 330.851 342.358 330.33 343.758 329.288C345.158 328.23 345.857 326.765 345.857 324.894C345.857 323.657 345.605 322.647 345.101 321.866C344.612 321.069 343.782 320.336 342.61 319.669C341.455 319.002 339.689 318.245 337.312 317.398C333.992 316.21 331.616 314.802 330.184 313.175C328.768 311.547 328.06 309.423 328.06 306.803C328.06 304.052 329.093 301.863 331.16 300.235C333.227 298.608 335.962 297.794 339.363 297.794C342.911 297.794 346.175 298.445 349.153 299.747L347.859 303.36C344.913 302.123 342.049 301.505 339.266 301.505C337.068 301.505 335.351 301.977 334.114 302.921C332.877 303.865 332.259 305.175 332.259 306.852C332.259 308.089 332.487 309.106 332.942 309.903C333.398 310.685 334.163 311.409 335.237 312.076C336.328 312.727 337.988 313.451 340.218 314.249C343.961 315.584 346.533 317.016 347.933 318.546C349.349 320.076 350.057 322.062 350.057 324.503ZM379.988 308.707C379.988 312.32 378.751 315.104 376.277 317.057C373.82 318.993 370.296 319.962 365.706 319.962H361.507V334H357.356V298.307H366.609C375.529 298.307 379.988 301.773 379.988 308.707ZM361.507 316.397H365.242C368.921 316.397 371.582 315.803 373.226 314.615C374.869 313.427 375.691 311.523 375.691 308.902C375.691 306.542 374.918 304.785 373.372 303.629C371.826 302.473 369.417 301.896 366.146 301.896H361.507V316.397ZM418.465 316.104C418.465 321.817 417.016 326.31 414.119 329.581C411.238 332.853 407.226 334.488 402.083 334.488C396.826 334.488 392.765 332.885 389.9 329.679C387.052 326.456 385.628 321.915 385.628 316.056C385.628 310.245 387.06 305.745 389.925 302.555C392.789 299.348 396.858 297.745 402.132 297.745C407.259 297.745 411.263 299.373 414.144 302.628C417.024 305.883 418.465 310.375 418.465 316.104ZM390.022 316.104C390.022 320.938 391.048 324.609 393.099 327.115C395.166 329.605 398.16 330.851 402.083 330.851C406.038 330.851 409.025 329.605 411.043 327.115C413.061 324.625 414.07 320.955 414.07 316.104C414.07 311.303 413.061 307.665 411.043 305.191C409.041 302.701 406.071 301.456 402.132 301.456C398.177 301.456 395.166 302.709 393.099 305.216C391.048 307.706 390.022 311.336 390.022 316.104ZM454.329 334H449.593L430.086 304.044H429.891C430.151 307.56 430.281 310.782 430.281 313.712V334H426.448V298.307H431.136L450.594 328.141H450.789C450.757 327.701 450.683 326.293 450.569 323.917C450.455 321.524 450.415 319.815 450.447 318.79V298.307H454.329V334ZM464.144 334V298.307H468.294V334H464.144ZM478.108 298.307H488.191C492.928 298.307 496.354 299.015 498.47 300.431C500.586 301.847 501.644 304.085 501.644 307.145C501.644 309.26 501.049 311.01 499.861 312.394C498.689 313.761 496.972 314.648 494.71 315.055V315.299C500.13 316.227 502.84 319.075 502.84 323.844C502.84 327.034 501.757 329.524 499.593 331.314C497.444 333.105 494.433 334 490.56 334H478.108V298.307ZM482.259 313.59H489.095C492.024 313.59 494.132 313.134 495.418 312.223C496.704 311.295 497.347 309.741 497.347 307.56C497.347 305.558 496.631 304.117 495.198 303.238C493.766 302.343 491.487 301.896 488.362 301.896H482.259V313.59ZM482.259 317.105V330.46H489.705C492.586 330.46 494.751 329.907 496.199 328.8C497.664 327.677 498.396 325.927 498.396 323.551C498.396 321.337 497.648 319.71 496.15 318.668C494.669 317.626 492.407 317.105 489.363 317.105H482.259ZM510.53 334V298.307H514.681V330.24H530.428V334H510.53ZM556.404 334H536.507V298.307H556.404V301.993H540.657V313.492H555.452V317.154H540.657V330.289H556.404V334Z" fill="black"/>
<path d="M160.911 455.098H146.768V469.241H134.395V455.098H120.252V442.724H134.395V428.581H146.768V442.724H160.911V455.098Z" fill="#E5E5E5"/>
<path d="M403.809 461.77H389.666V475.913H377.292V461.77H363.149V449.396H377.292V435.253H389.666V449.396H403.809V461.77Z" fill="#E5E5E5"/>
<path d="M656.865 398.386H642.722V412.529H630.348V398.386H616.204V386.012H630.348V371.869H642.722V386.012H656.865V398.386Z" fill="#E5E5E5"/>
<path d="M160.911 686.394H146.768V700.537H134.395V686.394H120.252V674.019H134.395V659.878H146.768V674.019H160.911V686.394Z" fill="#E5E5E5"/>
<path d="M680.628 698.425C680.628 693.828 684.43 690.028 689.025 690.028C693.624 690.028 697.424 693.828 697.424 698.425C697.424 703.022 693.624 706.822 689.025 706.822C684.43 706.822 680.628 703.022 680.628 698.425ZM696.098 661.387C696.098 658.295 694.066 656.263 689.557 656.263C684.695 656.263 681.778 659.532 680.01 663.687L667.812 656.702C671.7 647.598 680.275 642.472 690.088 642.472C700.164 642.472 710.241 648.659 710.241 660.151C710.241 673.32 696.098 677.388 696.098 683.487H681.955C681.955 673.145 696.098 669.167 696.098 661.387" fill="#E5E5E5"/>
<path d="M206.916 407.082C206.916 402.485 210.717 398.685 215.312 398.685C219.911 398.685 223.711 402.485 223.711 407.082C223.711 411.679 219.911 415.478 215.312 415.478C210.717 415.478 206.916 411.679 206.916 407.082ZM222.385 370.044C222.385 366.951 220.351 364.918 215.844 364.918C210.982 364.918 208.065 368.189 206.297 372.342L194.099 365.36C197.987 356.254 206.562 351.129 216.373 351.129C226.45 351.129 236.526 357.317 236.526 368.808C236.526 381.978 222.385 386.045 222.385 392.143H208.242C208.242 381.801 222.385 377.823 222.385 370.044" fill="#E5E5E5"/>
<path d="M708.429 385.953C708.429 381.356 712.229 377.556 716.826 377.556C721.423 377.556 725.222 381.356 725.222 385.953C725.222 390.55 721.423 394.35 716.826 394.35C712.229 394.35 708.429 390.55 708.429 385.953ZM723.896 348.915C723.896 345.823 721.865 343.789 717.358 343.789C712.496 343.789 709.577 347.06 707.81 351.214L695.61 344.231C699.5 335.126 708.075 330 717.887 330C727.963 330 738.039 336.188 738.039 347.679C738.039 360.85 723.896 364.916 723.896 371.014H709.755C709.755 360.673 723.896 356.695 723.896 348.915" fill="#E5E5E5"/>
<path d="M727.999 457.608H719.866L718.63 464.678H726.761L727.999 457.608ZM738.075 457.608L736.837 464.678H746.207L744.705 474.403H735.246L733.038 487.662H722.96L725.17 474.403H717.038L714.828 487.662H704.75L706.962 474.403H697.593L699.182 464.678H708.552L709.789 457.608H700.332L701.923 447.883H711.38L713.591 434.626H723.667L721.457 447.883H729.588L731.798 434.626H741.875L739.666 447.883H748.949L747.356 457.608H738.075Z" fill="#E5E5E5"/>
<path d="M471.429 420.912H463.296L462.058 427.982H470.192L471.429 420.912ZM481.506 420.912L480.268 427.982H489.637L488.136 437.707H478.677L476.468 450.966H466.39L468.6 437.707H460.469L458.259 450.966H448.181L450.391 437.707H441.021L442.613 427.982H451.982L453.22 420.912H443.76L445.352 411.187H454.811L457.019 397.93H467.096L464.887 411.187H473.019L475.229 397.93H485.305L483.097 411.187H492.379L490.786 420.912H481.506Z" fill="#E5E5E5"/>
<path d="M114.174 763.407H106.041L104.803 770.478H112.937L114.174 763.407ZM124.251 763.407L123.013 770.478H132.382L130.881 780.202H121.422L119.213 793.461H109.135L111.345 780.202H103.214L101.004 793.461H90.9257L93.1358 780.202H83.7666L85.3579 770.478H94.7271L95.9647 763.407H86.5071L88.0984 753.685H97.556L99.7661 740.426H109.843L107.632 753.685H115.764L117.974 740.426H128.05L125.842 753.685H135.124L133.531 763.407H124.251Z" fill="#E5E5E5"/>
<path d="M746.904 763.407H738.771L737.533 770.478H745.666L746.904 763.407ZM756.98 763.407L755.743 770.478H765.112L763.61 780.202H754.151L751.943 793.461H741.865L744.075 780.202H735.943L733.733 793.461H723.655L725.865 780.202H716.496L718.087 770.478H727.457L728.694 763.407H719.235L720.826 753.685H730.285L732.494 740.426H742.57L740.362 753.685H748.493L750.703 740.426H760.78L758.571 753.685H767.854L766.261 763.407H756.98Z" fill="#E5E5E5"/>
<path d="M114.096 564.338C35.957 564.338 -17.4057 514.786 -92.6861 509.068C-167.968 503.351 -283.27 591.021 -386.185 604.361C-489.1 617.702 -633.943 516.573 -734 516.573" stroke="black" stroke-width="18.236" stroke-miterlimit="10"/>
<path d="M270.716 567.316L276.092 468.094H230.709C203.552 468.094 191.282 517.406 164.244 531.82C141.754 543.807 122.077 544.063 110.643 544.063C99.207 544.063 98.373 565.053 98.373 565.053C98.373 565.053 99.207 586.045 110.643 586.045C122.077 586.045 141.754 586.298 164.244 598.284C191.282 612.698 203.552 662.01 230.709 662.01H276.092L270.327 567.311L270.716 567.316Z" fill="#FFF500"/>
<path d="M328.979 565.052C328.979 531.078 324.158 500.511 316.472 479.217V448.559H290.386C269.071 448.559 251.793 500.716 251.793 565.052C251.793 629.39 269.071 681.547 290.386 681.547H316.472V650.889C324.158 629.594 328.979 599.026 328.979 565.052Z" fill="black"/>
<path d="M353.278 565.052C353.278 629.39 335.999 681.547 314.685 681.547C293.37 681.547 276.093 629.39 276.093 565.052C276.093 500.716 293.37 448.559 314.685 448.559C335.999 448.559 353.278 500.716 353.278 565.052Z" fill="#FFF500"/>
<path d="M319.688 521.814C319.688 530.154 317.448 536.915 314.684 536.915C311.922 536.915 309.682 530.154 309.682 521.814C309.682 513.474 311.922 506.712 314.684 506.712C317.448 506.712 319.688 513.474 319.688 521.814Z" fill="black"/>
<path d="M397.232 536.915H314.686V506.712H397.232V536.915Z" fill="black"/>
<path d="M414.835 521.814C414.835 530.154 408.073 536.915 399.733 536.915C391.393 536.915 384.632 530.154 384.632 521.814C384.632 513.474 391.393 506.712 399.733 506.712C408.073 506.712 414.835 513.474 414.835 521.814Z" fill="black"/>
<path d="M319.688 608.291C319.688 616.631 317.448 623.392 314.684 623.392C311.922 623.392 309.682 616.631 309.682 608.291C309.682 599.951 311.922 593.189 314.684 593.189C317.448 593.189 319.688 599.951 319.688 608.291Z" fill="black"/>
<path d="M397.232 623.392H314.686V593.191H397.232V623.392Z" fill="black"/>
<path d="M414.835 608.291C414.835 616.631 408.073 623.392 399.733 623.392C391.393 623.392 384.632 616.631 384.632 608.291C384.632 599.951 391.393 593.189 399.733 593.189C408.073 593.189 414.835 599.951 414.835 608.291Z" fill="black"/>
<path d="M718.371 564.338C796.51 564.338 871.46 614.009 946.74 608.291C1022.02 602.573 1155.43 535.274 1258.34 548.615C1361.26 561.956 1451.31 605.572 1566.47 516.573" stroke="black" stroke-width="18.236" stroke-miterlimit="10"/>
<path d="M721.825 544.062C710.391 544.062 690.714 543.807 668.222 531.821C641.184 517.407 628.916 468.095 601.757 468.095H556.376L562.474 562.547L561.765 562.537L556.376 662.011H601.757C628.916 662.011 641.184 612.697 668.222 598.285C690.714 586.297 710.391 586.044 721.825 586.044C733.259 586.044 734.093 565.052 734.093 565.052C734.093 565.052 733.259 544.062 721.825 544.062Z" fill="#FFF500"/>
<path d="M503.488 565.052C503.488 531.078 508.31 500.511 515.995 479.217V448.559H542.083C563.396 448.559 580.673 500.716 580.673 565.052C580.673 629.39 563.396 681.547 542.083 681.547H515.995V650.889C508.31 629.594 503.488 599.026 503.488 565.052Z" fill="black"/>
<path d="M479.188 565.052C479.188 629.39 496.467 681.547 517.782 681.547C539.096 681.547 556.375 629.39 556.375 565.052C556.375 500.716 539.096 448.559 517.782 448.559C496.467 448.559 479.188 500.716 479.188 565.052Z" fill="#FFF500"/>
<path d="M512.779 521.814C512.779 530.154 515.019 536.915 517.782 536.915C520.544 536.915 522.784 530.154 522.784 521.814C522.784 513.474 520.544 506.712 517.782 506.712C515.019 506.712 512.779 513.474 512.779 521.814Z" fill="black"/>
<path d="M512.779 608.291C512.779 616.631 515.019 623.392 517.782 623.392C520.544 623.392 522.784 616.631 522.784 608.291C522.784 599.951 520.544 593.189 517.782 593.189C515.019 593.189 512.779 599.951 512.779 608.291Z" fill="black"/>
<path d="M586.067 738.113C586.151 738.113 586.233 738.113 586.311 738.116C586.223 737.966 586.139 737.991 586.067 738.113Z" fill="#4E4D4D"/>
<path d="M566.658 715.934C566.618 715.89 566.572 715.843 566.529 715.802C566.494 715.923 566.534 715.971 566.658 715.934Z" fill="#4E4D4D"/>
</g>
<defs>
<clipPath id="clip0">
<rect width="834" height="834" fill="white"/>
</clipPath>
</defs>
</svg>
